<?xml version="1.0" encoding="UTF-8"?>
<!DOCTYPE svg PUBLIC "-//W3C//DTD SVG 1.1//EN" "http://www.w3.org/Graphics/SVG/1.1/DTD/svg11.dtd">
<!-- Creator: CorelDRAW -->
<svg xmlns="http://www.w3.org/2000/svg" xml:space="preserve" width="176.084mm" height="39.8895mm" version="1.1" style="shape-rendering:geometricPrecision; text-rendering:geometricPrecision; image-rendering:optimizeQuality; fill-rule:evenodd; clip-rule:evenodd"
viewBox="0 0 16459.16 3728.61"
 xmlns:xlink="http://www.w3.org/1999/xlink"
 xmlns:xodm="http://www.corel.com/coreldraw/odm/2003">
 <defs>
  <style type="text/css">
   <![CDATA[
    .fil1 {fill:white}
    .fil0 {fill:white;fill-rule:nonzero}
   ]]>
  </style>
 </defs>
 <g id="Layer_x0020_1">
  <metadata id="CorelCorpID_0Corel-Layer"/>
  <g id="_105553308213696">
   <path class="fil0" d="M14927.77 3538.19l0 -2907.31c0,-65.38 -53.33,-118.71 -118.71,-118.71l-807.4 0c-65.38,0 -118.71,-53.33 -118.71,-118.71l0 -203.04c0,-65.38 53.33,-118.71 118.71,-118.71l2338.8 0c65.38,0 118.71,53.33 118.71,118.71l0 203.04c0,65.38 -53.33,118.71 -118.71,118.71l-807.4 0c-65.38,0 -118.71,53.33 -118.71,118.71l0 2907.31c0,65.38 -53.33,118.71 -118.71,118.71l-249.14 0c-65.38,0 -118.71,-53.33 -118.71,-118.71z"/>
   <path class="fil0" d="M12197.9 3538.19l0 -2907.31c0,-65.38 -53.33,-118.71 -118.71,-118.71l-807.4 0c-65.38,0 -118.71,-53.33 -118.71,-118.71l0 -203.04c0,-65.38 53.33,-118.71 118.71,-118.71l2338.8 0c65.38,0 118.71,53.33 118.71,118.71l0 203.04c0,65.38 -53.33,118.71 -118.71,118.71l-807.4 0c-65.38,0 -118.71,53.33 -118.71,118.71l0 2907.31c0,65.38 -53.33,118.71 -118.71,118.71l-249.14 0c-65.38,0 -118.71,-53.33 -118.71,-118.71z"/>
   <path class="fil0" d="M9227.3 3728.61c-341.45,0 -645.33,-76.83 -911.66,-229.63 -266.32,-152.79 -475.46,-368.76 -627.41,-647.89 -151.94,-279.13 -227.92,-607.78 -227.92,-986.79 0,-379.01 75.98,-708.5 227.92,-987.63 151.95,-279.14 361.09,-495.1 627.41,-647.9 266.33,-152.79 570.22,-228.77 911.66,-228.77 341.45,0 645.34,75.98 911.66,228.77 266.33,152.8 475.47,368.76 627.41,647.9 151.94,279.13 227.92,608.62 227.92,987.63 0,379.01 -75.98,707.66 -227.92,986.79 -151.94,279.13 -361.08,495.1 -627.41,647.89 -266.32,152.8 -570.22,229.63 -911.66,229.63zm0 -471.2c274.87,0 504.49,-62.31 688.87,-186.09 184.39,-123.78 323.52,-291.09 416.56,-501.92 93.05,-210.85 139.14,-445.6 139.14,-705.1 0,-259.49 -46.09,-495.09 -139.14,-705.94 -93.04,-210.85 -232.18,-378.16 -416.56,-501.92 -184.38,-123.78 -414,-185.24 -688.87,-185.24 -274.87,0 -504.49,61.46 -688.87,185.24 -184.38,123.77 -322.67,291.08 -415.71,501.92 -93.04,210.85 -140,446.45 -140,705.94 0,259.5 46.95,494.25 140,705.1 93.04,210.84 231.34,378.15 415.71,501.92 184.39,123.78 414,186.09 688.87,186.09z"/>
   <path class="fil0" d="M9597.29 2537.62l110.24 -112.29c45.8,-46.65 121.22,-47.34 167.87,-1.54l957.36 939.96c46.66,45.81 47.34,121.22 1.53,167.88l-110.23 112.28c-45.8,46.65 -121.22,47.34 -167.87,1.54l-957.37 -939.95c-46.66,-45.81 -47.34,-121.22 -1.53,-167.88z"/>
   <path class="fil0" d="M3386.12 3522.4l449.56 -3347.78c7.96,-59.3 57.83,-102.91 117.65,-102.91l239.6 0c45.09,0 83.75,23.27 104.88,63.09l803.49 1515.28c21.16,39.91 59.96,63.19 105.14,63.09 45.19,-0.1 83.88,-23.56 104.87,-63.57l794.26 -1514.33c21.03,-40.1 59.85,-63.57 105.13,-63.57l244.21 0c59.88,0 109.78,43.71 117.67,103.07l444.77 3347.78c4.66,35.14 -5.02,67.2 -28.38,93.86 -23.35,26.66 -53.85,40.49 -89.3,40.49l-271.77 0c-60.23,0 -110.37,-44.29 -117.8,-104.06l-350.71 -2820.44 128.05 20.49 -971.39 1854.89c-20.94,39.99 -59.56,63.46 -104.7,63.64 -45.14,0.18 -83.94,-22.99 -105.19,-62.81l-990.33 -1855.71 128.04 -20.49 -350.7 2820.44c-7.43,59.78 -57.57,104.06 -117.8,104.06l-271.59 0c-35.47,0 -66,-13.86 -89.35,-40.56 -23.35,-26.7 -33.02,-58.79 -28.3,-93.95z"/>
   <g>
    <g>
     <path class="fil0" d="M1842.29 891.46c331.66,72.03 613.62,269.84 794.11,556.72 180.53,286.94 236.71,626.71 158.19,956.83 -9.81,41.01 -1.66,82.24 18.98,115.05 20.64,32.82 52.77,56.79 92.5,66.3 80.7,19.23 162.06,-30.87 181.3,-111.57 97.32,-409.43 27.74,-830.88 -196.24,-1186.87 -223.93,-355.91 -573.95,-601.34 -985.01,-690.58 -81.08,-17.58 -161.38,34.03 -179.05,115.15 -17.59,81.08 34.02,161.38 115.15,179.05l0.07 -0.07z"/>
     <path class="fil0" d="M1661.6 2009.98c150.42,129.86 -44.34,355.46 -194.76,225.6 -150.42,-129.86 44.34,-355.46 194.76,-225.6z"/>
     <path class="fil0" d="M305.45 2217.25c-28.19,-338.22 78.43,-665.73 299.93,-922.27 221.54,-256.6 530,-409.76 868.65,-431.28 42.08,-2.63 79.13,-22.48 104.46,-51.83 25.34,-29.34 38.86,-67.08 36.32,-107.86 -5.23,-82.79 -76.96,-145.93 -159.75,-140.71 -419.99,26.77 -802.62,216.63 -1077.47,535 -274.79,318.29 -407.05,724.81 -372.07,1143.99 6.91,82.67 79.76,144.35 162.5,137.51 82.68,-6.91 144.36,-79.77 137.51,-162.51l-0.08 -0.04z"/>
     <path class="fil0" d="M2070.56 3279.09c-309.77,138.7 -654.1,146.63 -969.56,22.69 -315.52,-123.96 -562.25,-364.24 -694.8,-676.62 -16.42,-38.83 -47.43,-67.2 -83.51,-81.38 -36.08,-14.17 -76.16,-14.42 -113.8,1.49 -76.38,32.37 -112.18,120.96 -79.81,197.35 164.45,387.37 470.4,685.45 861.85,839.26 391.37,153.77 818.75,143.82 1202.66,-28.12 75.7,-33.91 109.76,-123.1 75.87,-198.89 -33.92,-75.7 -123.1,-109.76 -198.89,-75.87l-0.01 0.09z"/>
     <path class="fil0" d="M2721.45 1618.46c138.14,310.01 145.47,654.35 20.97,969.59 -124.53,315.3 -365.23,561.62 -677.84,693.6 -38.87,16.36 -67.29,47.32 -81.53,83.37 -14.25,36.06 -14.56,76.13 1.28,113.8 32.23,76.44 120.76,112.39 197.2,80.16 387.67,-163.77 686.29,-469.18 840.79,-860.37 154.46,-391.1 145.27,-818.5 -25.98,-1202.7 -33.78,-75.77 -122.91,-109.97 -198.76,-76.23 -75.77,33.79 -109.98,122.91 -76.23,198.76l0.09 0.01z"/>
     <path class="fil0" d="M1648.14 1762.52c24.19,-28.01 38.17,-64.87 36.35,-104.67 -3.55,-83.04 -73.6,-147.41 -156.8,-144.11 -164.95,6.76 -321.39,82.53 -429.23,207.43 -107.83,124.9 -159.71,290.43 -142.58,454.9 8.6,82.68 82.83,142.63 165.45,134.1 82.68,-8.6 142.63,-82.83 134.1,-165.45 -8.68,-82.99 16.35,-163.59 70.85,-226.73 54.51,-63.13 130.39,-99.84 213.97,-103.17 43.19,-1.66 81.34,-21.54 107.76,-52.13l0.14 -0.17z"/>
     <path class="fil0" d="M1613.76 1297.36c24.61,-28.51 38.7,-66.47 36.31,-107.02 -4.85,-82.96 -76.01,-146.45 -158.97,-141.6 -290.73,16.63 -555.5,147.31 -745.52,367.4 -190.01,220.09 -280.66,501.11 -254.71,791.14 7.31,82.78 80.52,143.91 163.29,136.61 82.78,-7.31 143.91,-80.52 136.6,-163.29 -18.71,-208.17 46.36,-409.81 182.65,-567.66 136.34,-157.92 326.46,-251.46 534.94,-263.5 42.35,-2.39 79.66,-22.26 105.23,-51.89l0.17 -0.19z"/>
    </g>
    <rect class="fil1" x="2849.67" y="595.19" width="287.96" height="3076.94" rx="142.45" ry="522.4"/>
   </g>
  </g>
 </g>
</svg>
