<?xml version="1.0" encoding="UTF-8"?>
<!DOCTYPE svg PUBLIC "-//W3C//DTD SVG 1.1//EN" "http://www.w3.org/Graphics/SVG/1.1/DTD/svg11.dtd">
<!-- Creator: CorelDRAW -->
<svg xmlns="http://www.w3.org/2000/svg" xml:space="preserve" width="195.122mm" height="44.2024mm" version="1.1" style="shape-rendering:geometricPrecision; text-rendering:geometricPrecision; image-rendering:optimizeQuality; fill-rule:evenodd; clip-rule:evenodd"
viewBox="0 0 17484.57 3960.9"
 xmlns:xlink="http://www.w3.org/1999/xlink"
 xmlns:xodm="http://www.corel.com/coreldraw/odm/2003">
 <defs>
  <style type="text/css">
   <![CDATA[
    .fil1 {fill:#D11149}
    .fil0 {fill:#D11149;fill-rule:nonzero}
   ]]>
  </style>
 </defs>
 <g id="Layer_x0020_1">
  <metadata id="CorelCorpID_0Corel-Layer"/>
  <path class="fil0" d="M15857.77 3758.63l0 -3088.45c0,-69.46 -56.65,-126.11 -126.11,-126.11l-857.7 0c-69.46,0 -126.11,-56.65 -126.11,-126.11l0 -215.69c0,-69.46 56.64,-126.11 126.11,-126.11l2484.5 0c69.46,0 126.11,56.65 126.11,126.11l0 215.69c0,69.46 -56.65,126.11 -126.11,126.11l-857.7 0c-69.46,0 -126.11,56.65 -126.11,126.11l0 3088.45c0,69.46 -56.64,126.11 -126.11,126.11l-264.67 0c-69.46,0 -126.11,-56.65 -126.11,-126.11z"/>
  <path class="fil0" d="M12957.82 3758.63l0 -3088.45c0,-69.46 -56.64,-126.11 -126.11,-126.11l-857.7 0c-69.46,0 -126.11,-56.65 -126.11,-126.11l0 -215.69c0,-69.46 56.65,-126.11 126.11,-126.11l2484.5 0c69.46,0 126.11,56.65 126.11,126.11l0 215.69c0,69.46 -56.65,126.11 -126.11,126.11l-857.7 0c-69.46,0 -126.11,56.65 -126.11,126.11l0 3088.45c0,69.46 -56.65,126.11 -126.11,126.11l-264.66 0c-69.46,0 -126.11,-56.65 -126.11,-126.11z"/>
  <path class="fil0" d="M9802.16 3960.9c-362.72,0 -685.53,-81.61 -968.46,-243.93 -282.92,-162.31 -505.09,-391.73 -666.5,-688.25 -161.41,-296.52 -242.12,-645.65 -242.12,-1048.26 0,-402.62 80.71,-752.65 242.12,-1049.16 161.41,-296.53 383.58,-525.95 666.5,-688.27 282.93,-162.31 605.74,-243.02 968.46,-243.02 362.73,0 685.55,80.71 968.47,243.02 282.92,162.33 505.09,391.74 666.5,688.27 161.4,296.51 242.11,646.54 242.11,1049.16 0,402.62 -80.71,751.74 -242.11,1048.26 -161.41,296.52 -383.58,525.95 -666.5,688.25 -282.92,162.33 -605.74,243.93 -968.47,243.93zm0 -500.55c292,0 535.93,-66.19 731.79,-197.68 195.87,-131.48 343.67,-309.22 442.51,-533.19 98.85,-223.98 147.81,-473.36 147.81,-749.03 0,-275.66 -48.96,-525.94 -147.81,-749.92 -98.84,-223.98 -246.65,-401.71 -442.51,-533.2 -195.87,-131.49 -439.8,-196.78 -731.79,-196.78 -291.99,0 -535.91,65.29 -731.79,196.78 -195.87,131.48 -342.77,309.21 -441.62,533.2 -98.84,223.98 -148.71,474.26 -148.71,749.92 0,275.66 49.88,525.04 148.71,749.03 98.85,223.97 245.75,401.7 441.62,533.19 195.87,131.49 439.8,197.68 731.79,197.68z"/>
  <path class="fil0" d="M10195.2 2695.71l117.11 -119.29c48.66,-49.56 128.77,-50.3 178.33,-1.64l1017.01 998.52c49.57,48.67 50.29,128.77 1.63,178.34l-117.11 119.27c-48.65,49.56 -128.77,50.3 -178.32,1.64l-1017.02 -998.5c-49.57,-48.67 -50.3,-128.77 -1.63,-178.34z"/>
  <path class="fil0" d="M3597.08 3741.84l477.57 -3556.34c8.46,-62.99 61.44,-109.33 124.99,-109.33l254.52 0c47.9,0 88.97,24.72 111.41,67.03l853.55 1609.69c22.48,42.39 63.7,67.13 111.69,67.02 48,-0.11 89.12,-25.02 111.41,-67.53l843.74 -1608.66c22.34,-42.6 63.58,-67.54 111.68,-67.54l259.42 0c63.6,0 116.63,46.43 125,109.5l472.49 3556.34c4.96,37.32 -5.33,71.38 -30.15,99.7 -24.8,28.33 -57.21,43.02 -94.86,43.02l-288.7 0c-63.99,0 -117.25,-47.04 -125.15,-110.55l-372.56 -2996.15 136.03 21.77 -1031.91 1970.44c-22.24,42.48 -63.27,67.41 -111.22,67.61 -47.95,0.19 -89.17,-24.43 -111.74,-66.73l-1052.04 -1971.32 136.02 -21.77 -372.55 2996.15c-7.89,63.51 -61.16,110.55 -125.15,110.55l-288.5 0c-37.69,0 -70.12,-14.73 -94.92,-43.08 -24.8,-28.36 -35.08,-62.46 -30.06,-99.81z"/>
  <g id="_105553308281216">
   <path class="fil0" d="M1957.06 947c352.33,76.52 651.85,286.65 843.59,591.4 191.78,304.81 251.46,665.75 168.03,1016.44 -10.41,43.56 -1.77,87.36 20.16,122.22 21.94,34.86 56.06,60.32 98.27,70.42 85.73,20.44 172.16,-32.79 192.59,-118.52 103.37,-434.94 29.47,-882.64 -208.46,-1260.81 -237.88,-378.08 -609.7,-638.82 -1046.38,-733.6 -86.12,-18.68 -171.43,36.15 -190.2,122.32 -18.68,86.12 36.15,171.43 122.32,190.19l0.07 -0.07z"/>
   <path class="fil0" d="M1765.12 2135.2c159.79,137.95 -47.11,377.6 -206.9,239.65 -159.79,-137.95 47.11,-377.6 206.9,-239.65z"/>
   <path class="fil0" d="M324.48 2355.38c-29.95,-359.29 83.33,-707.2 318.62,-979.73 235.34,-272.59 563.02,-435.29 922.76,-458.15 44.71,-2.79 84.05,-23.88 110.97,-55.06 26.91,-31.17 41.27,-71.26 38.58,-114.57 -5.55,-87.96 -81.74,-155.02 -169.69,-149.48 -446.15,28.44 -852.62,230.13 -1144.6,568.32 -291.91,338.12 -432.4,769.97 -395.24,1215.27 7.34,87.82 84.73,153.35 172.63,146.07 87.82,-7.34 153.35,-84.73 146.07,-172.63l-0.09 -0.04z"/>
   <path class="fil0" d="M2199.55 3483.38c-329.07,147.33 -694.85,155.77 -1029.96,24.1 -335.18,-131.69 -597.28,-386.93 -738.08,-718.77 -17.45,-41.25 -50.39,-71.39 -88.72,-86.45 -38.33,-15.06 -80.91,-15.32 -120.89,1.57 -81.14,34.39 -119.17,128.51 -84.78,209.65 174.7,411.51 499.7,728.16 915.55,891.55 415.76,163.35 869.76,152.77 1277.57,-29.87 80.42,-36.03 116.6,-130.77 80.6,-211.29 -36.03,-80.42 -130.77,-116.59 -211.29,-80.6l-0.01 0.11z"/>
   <path class="fil0" d="M2891 1719.29c146.75,329.33 154.53,695.12 22.27,1030 -132.29,334.95 -387.99,596.59 -720.07,736.8 -41.28,17.38 -71.48,50.26 -86.61,88.57 -15.13,38.3 -15.47,80.88 1.35,120.89 34.25,81.2 128.29,119.39 209.5,85.15 411.82,-173.97 729.04,-498.41 893.17,-913.97 164.09,-415.47 154.32,-869.49 -27.59,-1277.62 -35.89,-80.49 -130.56,-116.83 -211.14,-80.98 -80.49,35.89 -116.83,130.56 -80.98,211.14l0.11 0.01z"/>
   <path class="fil0" d="M1750.82 1872.33c25.7,-29.77 40.54,-68.92 38.62,-111.19 -3.77,-88.23 -78.19,-156.6 -166.57,-153.09 -175.23,7.18 -341.42,87.66 -455.97,220.35 -114.55,132.68 -169.66,308.52 -151.46,483.24 9.14,87.82 87.99,151.52 175.76,142.45 87.82,-9.13 151.52,-87.99 142.45,-175.75 -9.23,-88.17 17.36,-173.79 75.27,-240.86 57.9,-67.07 138.5,-106.06 227.29,-109.6 45.89,-1.77 86.41,-22.88 114.47,-55.38l0.15 -0.17z"/>
   <path class="fil0" d="M1714.29 1378.19c26.15,-30.29 41.11,-70.61 38.58,-113.69 -5.14,-88.12 -80.75,-155.58 -168.87,-150.43 -308.84,17.67 -590.11,156.49 -791.96,390.29 -201.85,233.81 -298.15,532.33 -270.57,840.43 7.76,87.94 85.52,152.87 173.45,145.12 87.93,-7.77 152.87,-85.53 145.11,-173.46 -19.88,-221.14 49.25,-435.33 194.02,-603.03 144.84,-167.76 346.8,-267.13 568.27,-279.92 44.99,-2.54 84.63,-23.64 111.8,-55.12l0.17 -0.2z"/>
  </g>
  <path class="fil1" d="M3181.77 632.27l-3.25 0c-83.23,0 -151.32,68.1 -151.32,151.32l0 2966c0,83.22 68.09,151.31 151.32,151.31l3.25 0c83.23,0 151.32,-68.09 151.32,-151.31l0 -2966c0,-83.22 -68.09,-151.32 -151.32,-151.32z"/>
 </g>
</svg>
